<svg width="111" height="29" viewBox="0 0 111 29" fill="none" xmlns="http://www.w3.org/2000/svg">
<path d="M10.6133 8.77881L18.2376 21.5393H2.98905L10.6133 8.77881Z" fill="white"/>
<path d="M23.2748 15.3057L17.0212 4.99339L29.5284 4.99339L23.2748 15.3057Z" fill="white"/>
<path d="M98.6332 14.0289C98.6332 12.8487 98.8991 11.8098 99.431 10.9122C99.9796 10.0146 100.719 9.31651 101.65 8.81785C102.581 8.30256 103.636 8.04492 104.817 8.04492C105.997 8.04492 107.044 8.30256 107.958 8.81785C108.889 9.31651 109.629 10.0146 110.177 10.9122C110.726 11.8098 111 12.8487 111 14.0289C111 15.1924 110.726 16.2313 110.177 17.1455C109.629 18.0431 108.889 18.7495 107.958 19.2648C107.044 19.7635 105.997 20.0128 104.817 20.0128C103.636 20.0128 102.581 19.7635 101.65 19.2648C100.719 18.7495 99.9796 18.0431 99.431 17.1455C98.8991 16.2313 98.6332 15.1924 98.6332 14.0289ZM101.401 14.0289C101.401 14.7436 101.55 15.3752 101.85 15.9238C102.149 16.4557 102.556 16.8795 103.071 17.1954C103.587 17.4946 104.168 17.6442 104.817 17.6442C105.448 17.6442 106.022 17.4946 106.537 17.1954C107.069 16.8795 107.484 16.4557 107.784 15.9238C108.083 15.3752 108.232 14.7436 108.232 14.0289C108.232 13.3141 108.083 12.6825 107.784 12.1339C107.484 11.5854 107.069 11.1616 106.537 10.8624C106.022 10.5632 105.448 10.4136 104.817 10.4136C104.168 10.4136 103.587 10.5632 103.071 10.8624C102.556 11.1616 102.149 11.5854 101.85 12.1339C101.55 12.6825 101.401 13.3141 101.401 14.0289Z" fill="white"/>
<path d="M86.2903 8.29541H89.2324L92.2244 15.7005L95.2163 8.29541H98.1834L92.2244 20.8118L86.2903 8.29541Z" fill="white"/>
<path d="M73.4799 14.0289C73.4799 12.8487 73.7458 11.8098 74.2777 10.9122C74.8262 10.0146 75.5659 9.31651 76.4968 8.81785C77.4276 8.30256 78.4831 8.04492 79.6633 8.04492C80.8434 8.04492 81.8906 8.30256 82.8048 8.81785C83.7357 9.31651 84.4753 10.0146 85.0239 10.9122C85.5724 11.8098 85.8467 12.8487 85.8467 14.0289C85.8467 15.1924 85.5724 16.2313 85.0239 17.1455C84.4753 18.0431 83.7357 18.7495 82.8048 19.2648C81.8906 19.7635 80.8434 20.0128 79.6633 20.0128C78.4831 20.0128 77.4276 19.7635 76.4968 19.2648C75.5659 18.7495 74.8262 18.0431 74.2777 17.1455C73.7458 16.2313 73.4799 15.1924 73.4799 14.0289ZM76.2474 14.0289C76.2474 14.7436 76.397 15.3752 76.6962 15.9238C76.9954 16.4557 77.4027 16.8795 77.9179 17.1954C78.4332 17.4946 79.015 17.6442 79.6633 17.6442C80.2949 17.6442 80.8684 17.4946 81.3836 17.1954C81.9155 16.8795 82.3311 16.4557 82.6303 15.9238C82.9295 15.3752 83.0791 14.7436 83.0791 14.0289C83.0791 13.3141 82.9295 12.6825 82.6303 12.1339C82.3311 11.5854 81.9155 11.1616 81.3836 10.8624C80.8684 10.5632 80.2949 10.4136 79.6633 10.4136C79.015 10.4136 78.4332 10.5632 77.9179 10.8624C77.4027 11.1616 76.9954 11.5854 76.6962 12.1339C76.397 12.6825 76.2474 13.3141 76.2474 14.0289Z" fill="white"/>
<path d="M68.1462 12.7822C68.1462 11.9345 67.9716 11.2945 67.6226 10.8624C67.2735 10.4302 66.7333 10.2141 66.0019 10.2141C65.5033 10.2141 65.0628 10.3221 64.6805 10.5382C64.2982 10.7377 63.999 11.0369 63.7829 11.4358C63.5668 11.8181 63.4588 12.2669 63.4588 12.7822V19.7635H60.766V8.29425H63.4588V10.0645C63.8244 9.383 64.2899 8.87602 64.855 8.54358C65.4368 8.21114 66.1266 8.04492 66.9245 8.04492C68.221 8.04492 69.21 8.44385 69.8915 9.24171C70.573 10.0229 70.9138 11.1034 70.9138 12.483V19.7635H68.1462V12.7822Z" fill="white"/>
<path d="M50.713 15.9986C51.0787 16.3975 51.4444 16.7466 51.8101 17.0458C52.1924 17.3283 52.5747 17.5444 52.957 17.694C53.3393 17.827 53.7216 17.8935 54.1039 17.8935C54.5859 17.8935 54.9599 17.7854 55.2259 17.5694C55.5085 17.3533 55.6497 17.0541 55.6497 16.6718C55.6497 16.3393 55.5417 16.0567 55.3256 15.824C55.1095 15.5747 54.8103 15.3669 54.428 15.2007C54.0457 15.0179 53.5969 14.835 53.0816 14.6522C52.5664 14.4527 52.0511 14.22 51.5358 13.9541C51.0371 13.6715 50.6216 13.3058 50.2891 12.857C49.9733 12.4082 49.8154 11.8431 49.8154 11.1616C49.8154 10.4634 49.9899 9.88166 50.339 9.41624C50.7047 8.95082 51.1867 8.61007 51.7851 8.39398C52.4001 8.16128 53.0567 8.04492 53.7548 8.04492C54.3865 8.04492 54.9765 8.13634 55.5251 8.31919C56.0902 8.50203 56.5972 8.74305 57.046 9.04224C57.4948 9.34144 57.8771 9.68219 58.1929 10.0645L56.6969 11.6602C56.3146 11.2114 55.8575 10.8457 55.3256 10.5632C54.7937 10.2806 54.2452 10.1393 53.68 10.1393C53.2977 10.1393 52.9819 10.2224 52.7326 10.3886C52.4832 10.5548 52.3586 10.7959 52.3586 11.1117C52.3586 11.3776 52.4666 11.6187 52.6827 11.8347C52.9154 12.0342 53.2146 12.2171 53.5803 12.3833C53.9626 12.5495 54.3865 12.724 54.8519 12.9069C55.4835 13.1562 56.0653 13.4305 56.5972 13.7297C57.1291 14.0289 57.553 14.3945 57.8688 14.8267C58.2012 15.2589 58.3674 15.824 58.3674 16.5222C58.3674 17.6026 57.9935 18.4753 57.2455 19.1401C56.5141 19.7884 55.5168 20.1125 54.2535 20.1125C53.4723 20.1125 52.7492 19.9962 52.0843 19.7635C51.4361 19.5141 50.8626 19.1983 50.3639 18.816C49.8819 18.4171 49.4747 18.0015 49.1422 17.5694L50.713 15.9986Z" fill="white"/>
<path d="M35.2723 14.0289C35.2723 12.8487 35.5383 11.8098 36.0702 10.9122C36.6187 10.0146 37.3584 9.31651 38.2892 8.81785C39.2201 8.30256 40.2756 8.04492 41.4557 8.04492C42.6359 8.04492 43.6831 8.30256 44.5973 8.81785C45.5281 9.31651 46.2678 10.0146 46.8163 10.9122C47.3649 11.8098 47.6391 12.8487 47.6391 14.0289C47.6391 15.1924 47.3649 16.2313 46.8163 17.1455C46.2678 18.0431 45.5281 18.7495 44.5973 19.2648C43.6831 19.7635 42.6359 20.0128 41.4557 20.0128C40.2756 20.0128 39.2201 19.7635 38.2892 19.2648C37.3584 18.7495 36.6187 18.0431 36.0702 17.1455C35.5383 16.2313 35.2723 15.1924 35.2723 14.0289ZM38.0399 14.0289C38.0399 14.7436 38.1895 15.3752 38.4887 15.9238C38.7879 16.4557 39.1951 16.8795 39.7104 17.1954C40.2257 17.4946 40.8075 17.6442 41.4557 17.6442C42.0874 17.6442 42.6608 17.4946 43.1761 17.1954C43.708 16.8795 44.1236 16.4557 44.4228 15.9238C44.722 15.3752 44.8716 14.7436 44.8716 14.0289C44.8716 13.3141 44.722 12.6825 44.4228 12.1339C44.1236 11.5854 43.708 11.1616 43.1761 10.8624C42.6608 10.5632 42.0874 10.4136 41.4557 10.4136C40.8075 10.4136 40.2257 10.5632 39.7104 10.8624C39.1951 11.1616 38.7879 11.5854 38.4887 12.1339C38.1895 12.6825 38.0399 13.3141 38.0399 14.0289Z" fill="white"/>
</svg>
